<?xml version="1.0" encoding="utf-8" standalone="no"?>
<!DOCTYPE svg PUBLIC "-//W3C//DTD SVG 1.1//EN"
  "http://www.w3.org/Graphics/SVG/1.1/DTD/svg11.dtd">
<svg xmlns:xlink="http://www.w3.org/1999/xlink" width="720pt" height="432pt" viewBox="0 0 720 432" xmlns="http://www.w3.org/2000/svg" version="1.1">
 <metadata>
  <rdf:RDF xmlns:dc="http://purl.org/dc/elements/1.1/" xmlns:cc="http://creativecommons.org/ns#" xmlns:rdf="http://www.w3.org/1999/02/22-rdf-syntax-ns#">
   <cc:Work>
    <dc:type rdf:resource="http://purl.org/dc/dcmitype/StillImage"/>
    <dc:date>1980-01-01T00:00:00+00:00</dc:date>
    <dc:format>image/svg+xml</dc:format>
    <dc:creator>
     <cc:Agent>
      <dc:title>Matplotlib v3.9.0, https://matplotlib.org/</dc:title>
     </cc:Agent>
    </dc:creator>
   </cc:Work>
  </rdf:RDF>
 </metadata>
 <defs>
  <style type="text/css">*{stroke-linejoin: round; stroke-linecap: butt}</style>
 </defs>
 <g id="figure_1">
  <g id="patch_1">
   <path d="M 0 432 
L 720 432 
L 720 0 
L 0 0 
z
" style="fill: #ffffff"/>
  </g>
  <g id="axes_1">
   <g id="patch_2">
    <path d="M 90 384.48 
L 648 384.48 
L 648 51.84 
L 90 51.84 
z
" style="fill: #ffffff"/>
   </g>
   <g id="matplotlib.axis_1">
    <g id="xtick_1">
     <g id="line2d_1">
      <path d="M 93.3083 384.48 
L 93.3083 51.84 
" clip-path="url(#pe6bbd7fac5)" style="fill: none; stroke: #b0b0b0; stroke-width: 0.8; stroke-linecap: square"/>
     </g>
     <g id="line2d_2">
      <defs>
       <path id="m963512601a" d="M 0 0 
L 0 3.5 
" style="stroke: #000000; stroke-width: 0.8"/>
      </defs>
      <g>
       <use xlink:href="#m963512601a" x="93.3083" y="384.48" style="stroke: #000000; stroke-width: 0.8"/>
      </g>
     </g>
     <g id="text_1">
      <!-- 0 -->
      <g transform="translate(90.12705 399.078438) scale(0.1 -0.1)">
       <defs>
        <path id="DejaVuSans-30" d="M 2034 4250 
Q 1547 4250 1301 3770 
Q 1056 3291 1056 2328 
Q 1056 1369 1301 889 
Q 1547 409 2034 409 
Q 2525 409 2770 889 
Q 3016 1369 3016 2328 
Q 3016 3291 2770 3770 
Q 2525 4250 2034 4250 
z
M 2034 4750 
Q 2819 4750 3233 4129 
Q 3647 3509 3647 2328 
Q 3647 1150 3233 529 
Q 2819 -91 2034 -91 
Q 1250 -91 836 529 
Q 422 1150 422 2328 
Q 422 3509 836 4129 
Q 1250 4750 2034 4750 
z
" transform="scale(0.015625)"/>
       </defs>
       <use xlink:href="#DejaVuSans-30"/>
      </g>
     </g>
    </g>
    <g id="xtick_2">
     <g id="line2d_3">
      <path d="M 203.58498 384.48 
L 203.58498 51.84 
" clip-path="url(#pe6bbd7fac5)" style="fill: none; stroke: #b0b0b0; stroke-width: 0.8; stroke-linecap: square"/>
     </g>
     <g id="line2d_4">
      <g>
       <use xlink:href="#m963512601a" x="203.58498" y="384.48" style="stroke: #000000; stroke-width: 0.8"/>
      </g>
     </g>
     <g id="text_2">
      <!-- 5 -->
      <g transform="translate(200.40373 399.078438) scale(0.1 -0.1)">
       <defs>
        <path id="DejaVuSans-35" d="M 691 4666 
L 3169 4666 
L 3169 4134 
L 1269 4134 
L 1269 2991 
Q 1406 3038 1543 3061 
Q 1681 3084 1819 3084 
Q 2600 3084 3056 2656 
Q 3513 2228 3513 1497 
Q 3513 744 3044 326 
Q 2575 -91 1722 -91 
Q 1428 -91 1123 -41 
Q 819 9 494 109 
L 494 744 
Q 775 591 1075 516 
Q 1375 441 1709 441 
Q 2250 441 2565 725 
Q 2881 1009 2881 1497 
Q 2881 1984 2565 2268 
Q 2250 2553 1709 2553 
Q 1456 2553 1204 2497 
Q 953 2441 691 2322 
L 691 4666 
z
" transform="scale(0.015625)"/>
       </defs>
       <use xlink:href="#DejaVuSans-35"/>
      </g>
     </g>
    </g>
    <g id="xtick_3">
     <g id="line2d_5">
      <path d="M 313.86166 384.48 
L 313.86166 51.84 
" clip-path="url(#pe6bbd7fac5)" style="fill: none; stroke: #b0b0b0; stroke-width: 0.8; stroke-linecap: square"/>
     </g>
     <g id="line2d_6">
      <g>
       <use xlink:href="#m963512601a" x="313.86166" y="384.48" style="stroke: #000000; stroke-width: 0.8"/>
      </g>
     </g>
     <g id="text_3">
      <!-- 10 -->
      <g transform="translate(307.49916 399.078438) scale(0.1 -0.1)">
       <defs>
        <path id="DejaVuSans-31" d="M 794 531 
L 1825 531 
L 1825 4091 
L 703 3866 
L 703 4441 
L 1819 4666 
L 2450 4666 
L 2450 531 
L 3481 531 
L 3481 0 
L 794 0 
L 794 531 
z
" transform="scale(0.015625)"/>
       </defs>
       <use xlink:href="#DejaVuSans-31"/>
       <use xlink:href="#DejaVuSans-30" x="63.623047"/>
      </g>
     </g>
    </g>
    <g id="xtick_4">
     <g id="line2d_7">
      <path d="M 424.13834 384.48 
L 424.13834 51.84 
" clip-path="url(#pe6bbd7fac5)" style="fill: none; stroke: #b0b0b0; stroke-width: 0.8; stroke-linecap: square"/>
     </g>
     <g id="line2d_8">
      <g>
       <use xlink:href="#m963512601a" x="424.13834" y="384.48" style="stroke: #000000; stroke-width: 0.8"/>
      </g>
     </g>
     <g id="text_4">
      <!-- 15 -->
      <g transform="translate(417.77584 399.078438) scale(0.1 -0.1)">
       <use xlink:href="#DejaVuSans-31"/>
       <use xlink:href="#DejaVuSans-35" x="63.623047"/>
      </g>
     </g>
    </g>
    <g id="xtick_5">
     <g id="line2d_9">
      <path d="M 534.41502 384.48 
L 534.41502 51.84 
" clip-path="url(#pe6bbd7fac5)" style="fill: none; stroke: #b0b0b0; stroke-width: 0.8; stroke-linecap: square"/>
     </g>
     <g id="line2d_10">
      <g>
       <use xlink:href="#m963512601a" x="534.41502" y="384.48" style="stroke: #000000; stroke-width: 0.8"/>
      </g>
     </g>
     <g id="text_5">
      <!-- 20 -->
      <g transform="translate(528.05252 399.078438) scale(0.1 -0.1)">
       <defs>
        <path id="DejaVuSans-32" d="M 1228 531 
L 3431 531 
L 3431 0 
L 469 0 
L 469 531 
Q 828 903 1448 1529 
Q 2069 2156 2228 2338 
Q 2531 2678 2651 2914 
Q 2772 3150 2772 3378 
Q 2772 3750 2511 3984 
Q 2250 4219 1831 4219 
Q 1534 4219 1204 4116 
Q 875 4013 500 3803 
L 500 4441 
Q 881 4594 1212 4672 
Q 1544 4750 1819 4750 
Q 2544 4750 2975 4387 
Q 3406 4025 3406 3419 
Q 3406 3131 3298 2873 
Q 3191 2616 2906 2266 
Q 2828 2175 2409 1742 
Q 1991 1309 1228 531 
z
" transform="scale(0.015625)"/>
       </defs>
       <use xlink:href="#DejaVuSans-32"/>
       <use xlink:href="#DejaVuSans-30" x="63.623047"/>
      </g>
     </g>
    </g>
    <g id="xtick_6">
     <g id="line2d_11">
      <path d="M 644.6917 384.48 
L 644.6917 51.84 
" clip-path="url(#pe6bbd7fac5)" style="fill: none; stroke: #b0b0b0; stroke-width: 0.8; stroke-linecap: square"/>
     </g>
     <g id="line2d_12">
      <g>
       <use xlink:href="#m963512601a" x="644.6917" y="384.48" style="stroke: #000000; stroke-width: 0.8"/>
      </g>
     </g>
     <g id="text_6">
      <!-- 25 -->
      <g transform="translate(638.3292 399.078438) scale(0.1 -0.1)">
       <use xlink:href="#DejaVuSans-32"/>
       <use xlink:href="#DejaVuSans-35" x="63.623047"/>
      </g>
     </g>
    </g>
    <g id="text_7">
     <!-- Hops with a reply -->
     <g transform="translate(325.421094 412.756563) scale(0.1 -0.1)">
      <defs>
       <path id="DejaVuSans-48" d="M 628 4666 
L 1259 4666 
L 1259 2753 
L 3553 2753 
L 3553 4666 
L 4184 4666 
L 4184 0 
L 3553 0 
L 3553 2222 
L 1259 2222 
L 1259 0 
L 628 0 
L 628 4666 
z
" transform="scale(0.015625)"/>
       <path id="DejaVuSans-6f" d="M 1959 3097 
Q 1497 3097 1228 2736 
Q 959 2375 959 1747 
Q 959 1119 1226 758 
Q 1494 397 1959 397 
Q 2419 397 2687 759 
Q 2956 1122 2956 1747 
Q 2956 2369 2687 2733 
Q 2419 3097 1959 3097 
z
M 1959 3584 
Q 2709 3584 3137 3096 
Q 3566 2609 3566 1747 
Q 3566 888 3137 398 
Q 2709 -91 1959 -91 
Q 1206 -91 779 398 
Q 353 888 353 1747 
Q 353 2609 779 3096 
Q 1206 3584 1959 3584 
z
" transform="scale(0.015625)"/>
       <path id="DejaVuSans-70" d="M 1159 525 
L 1159 -1331 
L 581 -1331 
L 581 3500 
L 1159 3500 
L 1159 2969 
Q 1341 3281 1617 3432 
Q 1894 3584 2278 3584 
Q 2916 3584 3314 3078 
Q 3713 2572 3713 1747 
Q 3713 922 3314 415 
Q 2916 -91 2278 -91 
Q 1894 -91 1617 61 
Q 1341 213 1159 525 
z
M 3116 1747 
Q 3116 2381 2855 2742 
Q 2594 3103 2138 3103 
Q 1681 3103 1420 2742 
Q 1159 2381 1159 1747 
Q 1159 1113 1420 752 
Q 1681 391 2138 391 
Q 2594 391 2855 752 
Q 3116 1113 3116 1747 
z
" transform="scale(0.015625)"/>
       <path id="DejaVuSans-73" d="M 2834 3397 
L 2834 2853 
Q 2591 2978 2328 3040 
Q 2066 3103 1784 3103 
Q 1356 3103 1142 2972 
Q 928 2841 928 2578 
Q 928 2378 1081 2264 
Q 1234 2150 1697 2047 
L 1894 2003 
Q 2506 1872 2764 1633 
Q 3022 1394 3022 966 
Q 3022 478 2636 193 
Q 2250 -91 1575 -91 
Q 1294 -91 989 -36 
Q 684 19 347 128 
L 347 722 
Q 666 556 975 473 
Q 1284 391 1588 391 
Q 1994 391 2212 530 
Q 2431 669 2431 922 
Q 2431 1156 2273 1281 
Q 2116 1406 1581 1522 
L 1381 1569 
Q 847 1681 609 1914 
Q 372 2147 372 2553 
Q 372 3047 722 3315 
Q 1072 3584 1716 3584 
Q 2034 3584 2315 3537 
Q 2597 3491 2834 3397 
z
" transform="scale(0.015625)"/>
       <path id="DejaVuSans-20" transform="scale(0.015625)"/>
       <path id="DejaVuSans-77" d="M 269 3500 
L 844 3500 
L 1563 769 
L 2278 3500 
L 2956 3500 
L 3675 769 
L 4391 3500 
L 4966 3500 
L 4050 0 
L 3372 0 
L 2619 2869 
L 1863 0 
L 1184 0 
L 269 3500 
z
" transform="scale(0.015625)"/>
       <path id="DejaVuSans-69" d="M 603 3500 
L 1178 3500 
L 1178 0 
L 603 0 
L 603 3500 
z
M 603 4863 
L 1178 4863 
L 1178 4134 
L 603 4134 
L 603 4863 
z
" transform="scale(0.015625)"/>
       <path id="DejaVuSans-74" d="M 1172 4494 
L 1172 3500 
L 2356 3500 
L 2356 3053 
L 1172 3053 
L 1172 1153 
Q 1172 725 1289 603 
Q 1406 481 1766 481 
L 2356 481 
L 2356 0 
L 1766 0 
Q 1100 0 847 248 
Q 594 497 594 1153 
L 594 3053 
L 172 3053 
L 172 3500 
L 594 3500 
L 594 4494 
L 1172 4494 
z
" transform="scale(0.015625)"/>
       <path id="DejaVuSans-68" d="M 3513 2113 
L 3513 0 
L 2938 0 
L 2938 2094 
Q 2938 2591 2744 2837 
Q 2550 3084 2163 3084 
Q 1697 3084 1428 2787 
Q 1159 2491 1159 1978 
L 1159 0 
L 581 0 
L 581 4863 
L 1159 4863 
L 1159 2956 
Q 1366 3272 1645 3428 
Q 1925 3584 2291 3584 
Q 2894 3584 3203 3211 
Q 3513 2838 3513 2113 
z
" transform="scale(0.015625)"/>
       <path id="DejaVuSans-61" d="M 2194 1759 
Q 1497 1759 1228 1600 
Q 959 1441 959 1056 
Q 959 750 1161 570 
Q 1363 391 1709 391 
Q 2188 391 2477 730 
Q 2766 1069 2766 1631 
L 2766 1759 
L 2194 1759 
z
M 3341 1997 
L 3341 0 
L 2766 0 
L 2766 531 
Q 2569 213 2275 61 
Q 1981 -91 1556 -91 
Q 1019 -91 701 211 
Q 384 513 384 1019 
Q 384 1609 779 1909 
Q 1175 2209 1959 2209 
L 2766 2209 
L 2766 2266 
Q 2766 2663 2505 2880 
Q 2244 3097 1772 3097 
Q 1472 3097 1187 3025 
Q 903 2953 641 2809 
L 641 3341 
Q 956 3463 1253 3523 
Q 1550 3584 1831 3584 
Q 2591 3584 2966 3190 
Q 3341 2797 3341 1997 
z
" transform="scale(0.015625)"/>
       <path id="DejaVuSans-72" d="M 2631 2963 
Q 2534 3019 2420 3045 
Q 2306 3072 2169 3072 
Q 1681 3072 1420 2755 
Q 1159 2438 1159 1844 
L 1159 0 
L 581 0 
L 581 3500 
L 1159 3500 
L 1159 2956 
Q 1341 3275 1631 3429 
Q 1922 3584 2338 3584 
Q 2397 3584 2469 3576 
Q 2541 3569 2628 3553 
L 2631 2963 
z
" transform="scale(0.015625)"/>
       <path id="DejaVuSans-65" d="M 3597 1894 
L 3597 1613 
L 953 1613 
Q 991 1019 1311 708 
Q 1631 397 2203 397 
Q 2534 397 2845 478 
Q 3156 559 3463 722 
L 3463 178 
Q 3153 47 2828 -22 
Q 2503 -91 2169 -91 
Q 1331 -91 842 396 
Q 353 884 353 1716 
Q 353 2575 817 3079 
Q 1281 3584 2069 3584 
Q 2775 3584 3186 3129 
Q 3597 2675 3597 1894 
z
M 3022 2063 
Q 3016 2534 2758 2815 
Q 2500 3097 2075 3097 
Q 1594 3097 1305 2825 
Q 1016 2553 972 2059 
L 3022 2063 
z
" transform="scale(0.015625)"/>
       <path id="DejaVuSans-6c" d="M 603 4863 
L 1178 4863 
L 1178 0 
L 603 0 
L 603 4863 
z
" transform="scale(0.015625)"/>
       <path id="DejaVuSans-79" d="M 2059 -325 
Q 1816 -950 1584 -1140 
Q 1353 -1331 966 -1331 
L 506 -1331 
L 506 -850 
L 844 -850 
Q 1081 -850 1212 -737 
Q 1344 -625 1503 -206 
L 1606 56 
L 191 3500 
L 800 3500 
L 1894 763 
L 2988 3500 
L 3597 3500 
L 2059 -325 
z
" transform="scale(0.015625)"/>
      </defs>
      <use xlink:href="#DejaVuSans-48"/>
      <use xlink:href="#DejaVuSans-6f" x="75.195312"/>
      <use xlink:href="#DejaVuSans-70" x="136.376953"/>
      <use xlink:href="#DejaVuSans-73" x="199.853516"/>
      <use xlink:href="#DejaVuSans-20" x="251.953125"/>
      <use xlink:href="#DejaVuSans-77" x="283.740234"/>
      <use xlink:href="#DejaVuSans-69" x="365.527344"/>
      <use xlink:href="#DejaVuSans-74" x="393.310547"/>
      <use xlink:href="#DejaVuSans-68" x="432.519531"/>
      <use xlink:href="#DejaVuSans-20" x="495.898438"/>
      <use xlink:href="#DejaVuSans-61" x="527.685547"/>
      <use xlink:href="#DejaVuSans-20" x="588.964844"/>
      <use xlink:href="#DejaVuSans-72" x="620.751953"/>
      <use xlink:href="#DejaVuSans-65" x="659.615234"/>
      <use xlink:href="#DejaVuSans-70" x="721.138672"/>
      <use xlink:href="#DejaVuSans-6c" x="784.615234"/>
      <use xlink:href="#DejaVuSans-79" x="812.398438"/>
     </g>
    </g>
   </g>
   <g id="matplotlib.axis_2">
    <g id="ytick_1">
     <g id="line2d_13">
      <path d="M 90 369.361115 
L 648 369.361115 
" clip-path="url(#pe6bbd7fac5)" style="fill: none; stroke: #b0b0b0; stroke-width: 0.8; stroke-linecap: square"/>
     </g>
     <g id="line2d_14">
      <defs>
       <path id="me81e61a66e" d="M 0 0 
L -3.5 0 
" style="stroke: #000000; stroke-width: 0.8"/>
      </defs>
      <g>
       <use xlink:href="#me81e61a66e" x="90" y="369.361115" style="stroke: #000000; stroke-width: 0.8"/>
      </g>
     </g>
     <g id="text_8">
      <!-- 0 -->
      <g transform="translate(76.6375 373.160334) scale(0.1 -0.1)">
       <use xlink:href="#DejaVuSans-30"/>
      </g>
     </g>
    </g>
    <g id="ytick_2">
     <g id="line2d_15">
      <path d="M 90 313.605613 
L 648 313.605613 
" clip-path="url(#pe6bbd7fac5)" style="fill: none; stroke: #b0b0b0; stroke-width: 0.8; stroke-linecap: square"/>
     </g>
     <g id="line2d_16">
      <g>
       <use xlink:href="#me81e61a66e" x="90" y="313.605613" style="stroke: #000000; stroke-width: 0.8"/>
      </g>
     </g>
     <g id="text_9">
      <!-- 50000 -->
      <g transform="translate(51.1875 317.404832) scale(0.1 -0.1)">
       <use xlink:href="#DejaVuSans-35"/>
       <use xlink:href="#DejaVuSans-30" x="63.623047"/>
       <use xlink:href="#DejaVuSans-30" x="127.246094"/>
       <use xlink:href="#DejaVuSans-30" x="190.869141"/>
       <use xlink:href="#DejaVuSans-30" x="254.492188"/>
      </g>
     </g>
    </g>
    <g id="ytick_3">
     <g id="line2d_17">
      <path d="M 90 257.850112 
L 648 257.850112 
" clip-path="url(#pe6bbd7fac5)" style="fill: none; stroke: #b0b0b0; stroke-width: 0.8; stroke-linecap: square"/>
     </g>
     <g id="line2d_18">
      <g>
       <use xlink:href="#me81e61a66e" x="90" y="257.850112" style="stroke: #000000; stroke-width: 0.8"/>
      </g>
     </g>
     <g id="text_10">
      <!-- 100000 -->
      <g transform="translate(44.825 261.64933) scale(0.1 -0.1)">
       <use xlink:href="#DejaVuSans-31"/>
       <use xlink:href="#DejaVuSans-30" x="63.623047"/>
       <use xlink:href="#DejaVuSans-30" x="127.246094"/>
       <use xlink:href="#DejaVuSans-30" x="190.869141"/>
       <use xlink:href="#DejaVuSans-30" x="254.492188"/>
       <use xlink:href="#DejaVuSans-30" x="318.115234"/>
      </g>
     </g>
    </g>
    <g id="ytick_4">
     <g id="line2d_19">
      <path d="M 90 202.09461 
L 648 202.09461 
" clip-path="url(#pe6bbd7fac5)" style="fill: none; stroke: #b0b0b0; stroke-width: 0.8; stroke-linecap: square"/>
     </g>
     <g id="line2d_20">
      <g>
       <use xlink:href="#me81e61a66e" x="90" y="202.09461" style="stroke: #000000; stroke-width: 0.8"/>
      </g>
     </g>
     <g id="text_11">
      <!-- 150000 -->
      <g transform="translate(44.825 205.893828) scale(0.1 -0.1)">
       <use xlink:href="#DejaVuSans-31"/>
       <use xlink:href="#DejaVuSans-35" x="63.623047"/>
       <use xlink:href="#DejaVuSans-30" x="127.246094"/>
       <use xlink:href="#DejaVuSans-30" x="190.869141"/>
       <use xlink:href="#DejaVuSans-30" x="254.492188"/>
       <use xlink:href="#DejaVuSans-30" x="318.115234"/>
      </g>
     </g>
    </g>
    <g id="ytick_5">
     <g id="line2d_21">
      <path d="M 90 146.339108 
L 648 146.339108 
" clip-path="url(#pe6bbd7fac5)" style="fill: none; stroke: #b0b0b0; stroke-width: 0.8; stroke-linecap: square"/>
     </g>
     <g id="line2d_22">
      <g>
       <use xlink:href="#me81e61a66e" x="90" y="146.339108" style="stroke: #000000; stroke-width: 0.8"/>
      </g>
     </g>
     <g id="text_12">
      <!-- 200000 -->
      <g transform="translate(44.825 150.138327) scale(0.1 -0.1)">
       <use xlink:href="#DejaVuSans-32"/>
       <use xlink:href="#DejaVuSans-30" x="63.623047"/>
       <use xlink:href="#DejaVuSans-30" x="127.246094"/>
       <use xlink:href="#DejaVuSans-30" x="190.869141"/>
       <use xlink:href="#DejaVuSans-30" x="254.492188"/>
       <use xlink:href="#DejaVuSans-30" x="318.115234"/>
      </g>
     </g>
    </g>
    <g id="ytick_6">
     <g id="line2d_23">
      <path d="M 90 90.583606 
L 648 90.583606 
" clip-path="url(#pe6bbd7fac5)" style="fill: none; stroke: #b0b0b0; stroke-width: 0.8; stroke-linecap: square"/>
     </g>
     <g id="line2d_24">
      <g>
       <use xlink:href="#me81e61a66e" x="90" y="90.583606" style="stroke: #000000; stroke-width: 0.8"/>
      </g>
     </g>
     <g id="text_13">
      <!-- 250000 -->
      <g transform="translate(44.825 94.382825) scale(0.1 -0.1)">
       <use xlink:href="#DejaVuSans-32"/>
       <use xlink:href="#DejaVuSans-35" x="63.623047"/>
       <use xlink:href="#DejaVuSans-30" x="127.246094"/>
       <use xlink:href="#DejaVuSans-30" x="190.869141"/>
       <use xlink:href="#DejaVuSans-30" x="254.492188"/>
       <use xlink:href="#DejaVuSans-30" x="318.115234"/>
      </g>
     </g>
    </g>
    <g id="text_14">
     <!-- Traces -->
     <g transform="translate(38.745312 234.026406) rotate(-90) scale(0.1 -0.1)">
      <defs>
       <path id="DejaVuSans-54" d="M -19 4666 
L 3928 4666 
L 3928 4134 
L 2272 4134 
L 2272 0 
L 1638 0 
L 1638 4134 
L -19 4134 
L -19 4666 
z
" transform="scale(0.015625)"/>
       <path id="DejaVuSans-63" d="M 3122 3366 
L 3122 2828 
Q 2878 2963 2633 3030 
Q 2388 3097 2138 3097 
Q 1578 3097 1268 2742 
Q 959 2388 959 1747 
Q 959 1106 1268 751 
Q 1578 397 2138 397 
Q 2388 397 2633 464 
Q 2878 531 3122 666 
L 3122 134 
Q 2881 22 2623 -34 
Q 2366 -91 2075 -91 
Q 1284 -91 818 406 
Q 353 903 353 1747 
Q 353 2603 823 3093 
Q 1294 3584 2113 3584 
Q 2378 3584 2631 3529 
Q 2884 3475 3122 3366 
z
" transform="scale(0.015625)"/>
      </defs>
      <use xlink:href="#DejaVuSans-54"/>
      <use xlink:href="#DejaVuSans-72" x="46.333984"/>
      <use xlink:href="#DejaVuSans-61" x="87.447266"/>
      <use xlink:href="#DejaVuSans-63" x="148.726562"/>
      <use xlink:href="#DejaVuSans-65" x="203.707031"/>
      <use xlink:href="#DejaVuSans-73" x="265.230469"/>
     </g>
    </g>
   </g>
   <g id="line2d_25">
    <path d="M 115.363636 351.671009 
L 137.418972 331.041474 
L 159.474308 278.929037 
L 181.529644 163.701371 
L 203.58498 66.96 
L 225.640316 103.976078 
L 247.695652 220.90094 
L 269.750988 308.813985 
L 291.806324 346.727727 
L 313.86166 360.636494 
L 335.916996 365.894238 
L 357.972332 367.928199 
L 380.027668 368.727733 
L 402.083004 369.05446 
L 424.13834 369.20723 
L 446.193676 369.302014 
L 468.249012 369.308705 
L 490.304348 369.335468 
L 512.359684 369.341043 
L 534.41502 369.345504 
L 556.470356 369.352194 
L 578.525692 369.356655 
" clip-path="url(#pe6bbd7fac5)" style="fill: none; stroke: #1f77b4; stroke-width: 1.5; stroke-linecap: square"/>
    <defs>
     <path id="mcdef4eb259" d="M 0 3 
C 0.795609 3 1.55874 2.683901 2.12132 2.12132 
C 2.683901 1.55874 3 0.795609 3 0 
C 3 -0.795609 2.683901 -1.55874 2.12132 -2.12132 
C 1.55874 -2.683901 0.795609 -3 0 -3 
C -0.795609 -3 -1.55874 -2.683901 -2.12132 -2.12132 
C -2.683901 -1.55874 -3 -0.795609 -3 0 
C -3 0.795609 -2.683901 1.55874 -2.12132 2.12132 
C -1.55874 2.683901 -0.795609 3 0 3 
z
" style="stroke: #1f77b4"/>
    </defs>
    <g clip-path="url(#pe6bbd7fac5)">
     <use xlink:href="#mcdef4eb259" x="115.363636" y="351.671009" style="fill: #1f77b4; stroke: #1f77b4"/>
     <use xlink:href="#mcdef4eb259" x="137.418972" y="331.041474" style="fill: #1f77b4; stroke: #1f77b4"/>
     <use xlink:href="#mcdef4eb259" x="159.474308" y="278.929037" style="fill: #1f77b4; stroke: #1f77b4"/>
     <use xlink:href="#mcdef4eb259" x="181.529644" y="163.701371" style="fill: #1f77b4; stroke: #1f77b4"/>
     <use xlink:href="#mcdef4eb259" x="203.58498" y="66.96" style="fill: #1f77b4; stroke: #1f77b4"/>
     <use xlink:href="#mcdef4eb259" x="225.640316" y="103.976078" style="fill: #1f77b4; stroke: #1f77b4"/>
     <use xlink:href="#mcdef4eb259" x="247.695652" y="220.90094" style="fill: #1f77b4; stroke: #1f77b4"/>
     <use xlink:href="#mcdef4eb259" x="269.750988" y="308.813985" style="fill: #1f77b4; stroke: #1f77b4"/>
     <use xlink:href="#mcdef4eb259" x="291.806324" y="346.727727" style="fill: #1f77b4; stroke: #1f77b4"/>
     <use xlink:href="#mcdef4eb259" x="313.86166" y="360.636494" style="fill: #1f77b4; stroke: #1f77b4"/>
     <use xlink:href="#mcdef4eb259" x="335.916996" y="365.894238" style="fill: #1f77b4; stroke: #1f77b4"/>
     <use xlink:href="#mcdef4eb259" x="357.972332" y="367.928199" style="fill: #1f77b4; stroke: #1f77b4"/>
     <use xlink:href="#mcdef4eb259" x="380.027668" y="368.727733" style="fill: #1f77b4; stroke: #1f77b4"/>
     <use xlink:href="#mcdef4eb259" x="402.083004" y="369.05446" style="fill: #1f77b4; stroke: #1f77b4"/>
     <use xlink:href="#mcdef4eb259" x="424.13834" y="369.20723" style="fill: #1f77b4; stroke: #1f77b4"/>
     <use xlink:href="#mcdef4eb259" x="446.193676" y="369.302014" style="fill: #1f77b4; stroke: #1f77b4"/>
     <use xlink:href="#mcdef4eb259" x="468.249012" y="369.308705" style="fill: #1f77b4; stroke: #1f77b4"/>
     <use xlink:href="#mcdef4eb259" x="490.304348" y="369.335468" style="fill: #1f77b4; stroke: #1f77b4"/>
     <use xlink:href="#mcdef4eb259" x="512.359684" y="369.341043" style="fill: #1f77b4; stroke: #1f77b4"/>
     <use xlink:href="#mcdef4eb259" x="534.41502" y="369.345504" style="fill: #1f77b4; stroke: #1f77b4"/>
     <use xlink:href="#mcdef4eb259" x="556.470356" y="369.352194" style="fill: #1f77b4; stroke: #1f77b4"/>
     <use xlink:href="#mcdef4eb259" x="578.525692" y="369.356655" style="fill: #1f77b4; stroke: #1f77b4"/>
    </g>
   </g>
   <g id="line2d_26">
    <path d="M 115.363636 236.592769 
L 137.418972 335.161805 
L 159.474308 358.502174 
L 181.529644 366.01244 
L 203.58498 368.329638 
L 225.640316 369.068956 
L 247.695652 369.283057 
L 269.750988 369.332122 
L 291.806324 369.349964 
L 313.86166 369.356655 
L 335.916996 369.35554 
L 357.972332 369.36 
L 402.083004 369.358885 
L 424.13834 369.358885 
L 446.193676 369.36 
" clip-path="url(#pe6bbd7fac5)" style="fill: none; stroke: #ff7f0e; stroke-width: 1.5; stroke-linecap: square"/>
    <defs>
     <path id="m1a961ee398" d="M 0 3 
C 0.795609 3 1.55874 2.683901 2.12132 2.12132 
C 2.683901 1.55874 3 0.795609 3 0 
C 3 -0.795609 2.683901 -1.55874 2.12132 -2.12132 
C 1.55874 -2.683901 0.795609 -3 0 -3 
C -0.795609 -3 -1.55874 -2.683901 -2.12132 -2.12132 
C -2.683901 -1.55874 -3 -0.795609 -3 0 
C -3 0.795609 -2.683901 1.55874 -2.12132 2.12132 
C -1.55874 2.683901 -0.795609 3 0 3 
z
" style="stroke: #ff7f0e"/>
    </defs>
    <g clip-path="url(#pe6bbd7fac5)">
     <use xlink:href="#m1a961ee398" x="115.363636" y="236.592769" style="fill: #ff7f0e; stroke: #ff7f0e"/>
     <use xlink:href="#m1a961ee398" x="137.418972" y="335.161805" style="fill: #ff7f0e; stroke: #ff7f0e"/>
     <use xlink:href="#m1a961ee398" x="159.474308" y="358.502174" style="fill: #ff7f0e; stroke: #ff7f0e"/>
     <use xlink:href="#m1a961ee398" x="181.529644" y="366.01244" style="fill: #ff7f0e; stroke: #ff7f0e"/>
     <use xlink:href="#m1a961ee398" x="203.58498" y="368.329638" style="fill: #ff7f0e; stroke: #ff7f0e"/>
     <use xlink:href="#m1a961ee398" x="225.640316" y="369.068956" style="fill: #ff7f0e; stroke: #ff7f0e"/>
     <use xlink:href="#m1a961ee398" x="247.695652" y="369.283057" style="fill: #ff7f0e; stroke: #ff7f0e"/>
     <use xlink:href="#m1a961ee398" x="269.750988" y="369.332122" style="fill: #ff7f0e; stroke: #ff7f0e"/>
     <use xlink:href="#m1a961ee398" x="291.806324" y="369.349964" style="fill: #ff7f0e; stroke: #ff7f0e"/>
     <use xlink:href="#m1a961ee398" x="313.86166" y="369.356655" style="fill: #ff7f0e; stroke: #ff7f0e"/>
     <use xlink:href="#m1a961ee398" x="335.916996" y="369.35554" style="fill: #ff7f0e; stroke: #ff7f0e"/>
     <use xlink:href="#m1a961ee398" x="357.972332" y="369.36" style="fill: #ff7f0e; stroke: #ff7f0e"/>
     <use xlink:href="#m1a961ee398" x="402.083004" y="369.358885" style="fill: #ff7f0e; stroke: #ff7f0e"/>
     <use xlink:href="#m1a961ee398" x="424.13834" y="369.358885" style="fill: #ff7f0e; stroke: #ff7f0e"/>
     <use xlink:href="#m1a961ee398" x="446.193676" y="369.36" style="fill: #ff7f0e; stroke: #ff7f0e"/>
    </g>
   </g>
   <g id="line2d_27">
    <path d="M 115.363636 369.353309 
L 137.418972 369.353309 
L 159.474308 369.265216 
L 181.529644 368.273883 
L 203.58498 361.708115 
L 225.640316 351.536081 
L 247.695652 318.860012 
L 269.750988 260.033497 
L 291.806324 174.853587 
L 313.86166 98.005779 
L 335.916996 127.134683 
L 357.972332 223.127815 
L 380.027668 297.583712 
L 402.083004 337.351882 
L 424.13834 354.988462 
L 446.193676 363.051823 
L 468.249012 366.762909 
L 490.304348 368.441149 
L 512.359684 369.075647 
L 534.41502 369.267446 
L 556.470356 369.306475 
L 578.525692 369.347734 
L 600.581028 369.356655 
L 622.636364 369.36 
" clip-path="url(#pe6bbd7fac5)" style="fill: none; stroke: #2ca02c; stroke-width: 1.5; stroke-linecap: square"/>
    <defs>
     <path id="m22a7b6fd1d" d="M 0 3 
C 0.795609 3 1.55874 2.683901 2.12132 2.12132 
C 2.683901 1.55874 3 0.795609 3 0 
C 3 -0.795609 2.683901 -1.55874 2.12132 -2.12132 
C 1.55874 -2.683901 0.795609 -3 0 -3 
C -0.795609 -3 -1.55874 -2.683901 -2.12132 -2.12132 
C -2.683901 -1.55874 -3 -0.795609 -3 0 
C -3 0.795609 -2.683901 1.55874 -2.12132 2.12132 
C -1.55874 2.683901 -0.795609 3 0 3 
z
" style="stroke: #2ca02c"/>
    </defs>
    <g clip-path="url(#pe6bbd7fac5)">
     <use xlink:href="#m22a7b6fd1d" x="115.363636" y="369.353309" style="fill: #2ca02c; stroke: #2ca02c"/>
     <use xlink:href="#m22a7b6fd1d" x="137.418972" y="369.353309" style="fill: #2ca02c; stroke: #2ca02c"/>
     <use xlink:href="#m22a7b6fd1d" x="159.474308" y="369.265216" style="fill: #2ca02c; stroke: #2ca02c"/>
     <use xlink:href="#m22a7b6fd1d" x="181.529644" y="368.273883" style="fill: #2ca02c; stroke: #2ca02c"/>
     <use xlink:href="#m22a7b6fd1d" x="203.58498" y="361.708115" style="fill: #2ca02c; stroke: #2ca02c"/>
     <use xlink:href="#m22a7b6fd1d" x="225.640316" y="351.536081" style="fill: #2ca02c; stroke: #2ca02c"/>
     <use xlink:href="#m22a7b6fd1d" x="247.695652" y="318.860012" style="fill: #2ca02c; stroke: #2ca02c"/>
     <use xlink:href="#m22a7b6fd1d" x="269.750988" y="260.033497" style="fill: #2ca02c; stroke: #2ca02c"/>
     <use xlink:href="#m22a7b6fd1d" x="291.806324" y="174.853587" style="fill: #2ca02c; stroke: #2ca02c"/>
     <use xlink:href="#m22a7b6fd1d" x="313.86166" y="98.005779" style="fill: #2ca02c; stroke: #2ca02c"/>
     <use xlink:href="#m22a7b6fd1d" x="335.916996" y="127.134683" style="fill: #2ca02c; stroke: #2ca02c"/>
     <use xlink:href="#m22a7b6fd1d" x="357.972332" y="223.127815" style="fill: #2ca02c; stroke: #2ca02c"/>
     <use xlink:href="#m22a7b6fd1d" x="380.027668" y="297.583712" style="fill: #2ca02c; stroke: #2ca02c"/>
     <use xlink:href="#m22a7b6fd1d" x="402.083004" y="337.351882" style="fill: #2ca02c; stroke: #2ca02c"/>
     <use xlink:href="#m22a7b6fd1d" x="424.13834" y="354.988462" style="fill: #2ca02c; stroke: #2ca02c"/>
     <use xlink:href="#m22a7b6fd1d" x="446.193676" y="363.051823" style="fill: #2ca02c; stroke: #2ca02c"/>
     <use xlink:href="#m22a7b6fd1d" x="468.249012" y="366.762909" style="fill: #2ca02c; stroke: #2ca02c"/>
     <use xlink:href="#m22a7b6fd1d" x="490.304348" y="368.441149" style="fill: #2ca02c; stroke: #2ca02c"/>
     <use xlink:href="#m22a7b6fd1d" x="512.359684" y="369.075647" style="fill: #2ca02c; stroke: #2ca02c"/>
     <use xlink:href="#m22a7b6fd1d" x="534.41502" y="369.267446" style="fill: #2ca02c; stroke: #2ca02c"/>
     <use xlink:href="#m22a7b6fd1d" x="556.470356" y="369.306475" style="fill: #2ca02c; stroke: #2ca02c"/>
     <use xlink:href="#m22a7b6fd1d" x="578.525692" y="369.347734" style="fill: #2ca02c; stroke: #2ca02c"/>
     <use xlink:href="#m22a7b6fd1d" x="600.581028" y="369.356655" style="fill: #2ca02c; stroke: #2ca02c"/>
     <use xlink:href="#m22a7b6fd1d" x="622.636364" y="369.36" style="fill: #2ca02c; stroke: #2ca02c"/>
    </g>
   </g>
   <g id="patch_3">
    <path d="M 90 384.48 
L 90 51.84 
" style="fill: none; stroke: #000000; stroke-width: 0.8; stroke-linejoin: miter; stroke-linecap: square"/>
   </g>
   <g id="patch_4">
    <path d="M 648 384.48 
L 648 51.84 
" style="fill: none; stroke: #000000; stroke-width: 0.8; stroke-linejoin: miter; stroke-linecap: square"/>
   </g>
   <g id="patch_5">
    <path d="M 90 384.48 
L 648 384.48 
" style="fill: none; stroke: #000000; stroke-width: 0.8; stroke-linejoin: miter; stroke-linecap: square"/>
   </g>
   <g id="patch_6">
    <path d="M 90 51.84 
L 648 51.84 
" style="fill: none; stroke: #000000; stroke-width: 0.8; stroke-linejoin: miter; stroke-linecap: square"/>
   </g>
   <g id="text_15">
    <!-- Replies per trace -->
    <g transform="translate(318.180938 45.84) scale(0.12 -0.12)">
     <defs>
      <path id="DejaVuSans-52" d="M 2841 2188 
Q 3044 2119 3236 1894 
Q 3428 1669 3622 1275 
L 4263 0 
L 3584 0 
L 2988 1197 
Q 2756 1666 2539 1819 
Q 2322 1972 1947 1972 
L 1259 1972 
L 1259 0 
L 628 0 
L 628 4666 
L 2053 4666 
Q 2853 4666 3247 4331 
Q 3641 3997 3641 3322 
Q 3641 2881 3436 2590 
Q 3231 2300 2841 2188 
z
M 1259 4147 
L 1259 2491 
L 2053 2491 
Q 2509 2491 2742 2702 
Q 2975 2913 2975 3322 
Q 2975 3731 2742 3939 
Q 2509 4147 2053 4147 
L 1259 4147 
z
" transform="scale(0.015625)"/>
     </defs>
     <use xlink:href="#DejaVuSans-52"/>
     <use xlink:href="#DejaVuSans-65" x="64.982422"/>
     <use xlink:href="#DejaVuSans-70" x="126.505859"/>
     <use xlink:href="#DejaVuSans-6c" x="189.982422"/>
     <use xlink:href="#DejaVuSans-69" x="217.765625"/>
     <use xlink:href="#DejaVuSans-65" x="245.548828"/>
     <use xlink:href="#DejaVuSans-73" x="307.072266"/>
     <use xlink:href="#DejaVuSans-20" x="359.171875"/>
     <use xlink:href="#DejaVuSans-70" x="390.958984"/>
     <use xlink:href="#DejaVuSans-65" x="454.435547"/>
     <use xlink:href="#DejaVuSans-72" x="515.958984"/>
     <use xlink:href="#DejaVuSans-20" x="557.072266"/>
     <use xlink:href="#DejaVuSans-74" x="588.859375"/>
     <use xlink:href="#DejaVuSans-72" x="628.068359"/>
     <use xlink:href="#DejaVuSans-61" x="669.181641"/>
     <use xlink:href="#DejaVuSans-63" x="730.460938"/>
     <use xlink:href="#DejaVuSans-65" x="785.441406"/>
    </g>
   </g>
   <g id="legend_1">
    <g id="patch_7">
     <path d="M 575.134375 103.874375 
L 641 103.874375 
Q 643 103.874375 643 101.874375 
L 643 58.84 
Q 643 56.84 641 56.84 
L 575.134375 56.84 
Q 573.134375 56.84 573.134375 58.84 
L 573.134375 101.874375 
Q 573.134375 103.874375 575.134375 103.874375 
z
" style="fill: #ffffff; opacity: 0.8; stroke: #cccccc; stroke-linejoin: miter"/>
    </g>
    <g id="line2d_28">
     <path d="M 577.134375 64.938437 
L 587.134375 64.938437 
L 597.134375 64.938437 
" style="fill: none; stroke: #1f77b4; stroke-width: 1.5; stroke-linecap: square"/>
     <g>
      <use xlink:href="#mcdef4eb259" x="587.134375" y="64.938437" style="fill: #1f77b4; stroke: #1f77b4"/>
     </g>
    </g>
    <g id="text_16">
     <!-- fly.io -->
     <g transform="translate(605.134375 68.438437) scale(0.1 -0.1)">
      <defs>
       <path id="DejaVuSans-66" d="M 2375 4863 
L 2375 4384 
L 1825 4384 
Q 1516 4384 1395 4259 
Q 1275 4134 1275 3809 
L 1275 3500 
L 2222 3500 
L 2222 3053 
L 1275 3053 
L 1275 0 
L 697 0 
L 697 3053 
L 147 3053 
L 147 3500 
L 697 3500 
L 697 3744 
Q 697 4328 969 4595 
Q 1241 4863 1831 4863 
L 2375 4863 
z
" transform="scale(0.015625)"/>
       <path id="DejaVuSans-2e" d="M 684 794 
L 1344 794 
L 1344 0 
L 684 0 
L 684 794 
z
" transform="scale(0.015625)"/>
      </defs>
      <use xlink:href="#DejaVuSans-66"/>
      <use xlink:href="#DejaVuSans-6c" x="35.205078"/>
      <use xlink:href="#DejaVuSans-79" x="62.988281"/>
      <use xlink:href="#DejaVuSans-2e" x="107.917969"/>
      <use xlink:href="#DejaVuSans-69" x="139.705078"/>
      <use xlink:href="#DejaVuSans-6f" x="167.488281"/>
     </g>
    </g>
    <g id="line2d_29">
     <path d="M 577.134375 79.616562 
L 587.134375 79.616562 
L 597.134375 79.616562 
" style="fill: none; stroke: #ff7f0e; stroke-width: 1.5; stroke-linecap: square"/>
     <g>
      <use xlink:href="#m1a961ee398" x="587.134375" y="79.616562" style="fill: #ff7f0e; stroke: #ff7f0e"/>
     </g>
    </g>
    <g id="text_17">
     <!-- google -->
     <g transform="translate(605.134375 83.116562) scale(0.1 -0.1)">
      <defs>
       <path id="DejaVuSans-67" d="M 2906 1791 
Q 2906 2416 2648 2759 
Q 2391 3103 1925 3103 
Q 1463 3103 1205 2759 
Q 947 2416 947 1791 
Q 947 1169 1205 825 
Q 1463 481 1925 481 
Q 2391 481 2648 825 
Q 2906 1169 2906 1791 
z
M 3481 434 
Q 3481 -459 3084 -895 
Q 2688 -1331 1869 -1331 
Q 1566 -1331 1297 -1286 
Q 1028 -1241 775 -1147 
L 775 -588 
Q 1028 -725 1275 -790 
Q 1522 -856 1778 -856 
Q 2344 -856 2625 -561 
Q 2906 -266 2906 331 
L 2906 616 
Q 2728 306 2450 153 
Q 2172 0 1784 0 
Q 1141 0 747 490 
Q 353 981 353 1791 
Q 353 2603 747 3093 
Q 1141 3584 1784 3584 
Q 2172 3584 2450 3431 
Q 2728 3278 2906 2969 
L 2906 3500 
L 3481 3500 
L 3481 434 
z
" transform="scale(0.015625)"/>
      </defs>
      <use xlink:href="#DejaVuSans-67"/>
      <use xlink:href="#DejaVuSans-6f" x="63.476562"/>
      <use xlink:href="#DejaVuSans-6f" x="124.658203"/>
      <use xlink:href="#DejaVuSans-67" x="185.839844"/>
      <use xlink:href="#DejaVuSans-6c" x="249.316406"/>
      <use xlink:href="#DejaVuSans-65" x="277.099609"/>
     </g>
    </g>
    <g id="line2d_30">
     <path d="M 577.134375 94.294687 
L 587.134375 94.294687 
L 597.134375 94.294687 
" style="fill: none; stroke: #2ca02c; stroke-width: 1.5; stroke-linecap: square"/>
     <g>
      <use xlink:href="#m22a7b6fd1d" x="587.134375" y="94.294687" style="fill: #2ca02c; stroke: #2ca02c"/>
     </g>
    </g>
    <g id="text_18">
     <!-- local -->
     <g transform="translate(605.134375 97.794687) scale(0.1 -0.1)">
      <use xlink:href="#DejaVuSans-6c"/>
      <use xlink:href="#DejaVuSans-6f" x="27.783203"/>
      <use xlink:href="#DejaVuSans-63" x="88.964844"/>
      <use xlink:href="#DejaVuSans-61" x="143.945312"/>
      <use xlink:href="#DejaVuSans-6c" x="205.224609"/>
     </g>
    </g>
   </g>
  </g>
 </g>
 <defs>
  <clipPath id="pe6bbd7fac5">
   <rect x="90" y="51.84" width="558" height="332.64"/>
  </clipPath>
 </defs>
</svg>
